<svg width="884" height="787" viewBox="0 0 884 787" fill="none" xmlns="http://www.w3.org/2000/svg">
<g clip-path="url(#clip0_6_30)">
<mask id="mask0_6_30" style="mask-type:luminance" maskUnits="userSpaceOnUse" x="0" y="0" width="884" height="787">
<path d="M884 0H0V787H884V0Z" fill="white"/>
</mask>
<g mask="url(#mask0_6_30)">
<g opacity="0.8">
<path d="M883.863 353.989L883.756 350.759L884 348.55L883.692 348.787L883.174 333.124L882.318 307.162L883.015 308.185L882.29 304.237L882.207 303.778L882.2 303.568L882.138 301.714L881.872 301.96L874.749 263.143L876.273 265.381L874.074 259.043L873.91 258.568L873.565 256.693L873.343 256.939L859.272 216.395L859.332 216.314L859.075 215.83L858.501 214.176L858.323 214.413L838.331 176.77L838.386 176.682L838.032 176.208L837.277 174.785L837.173 174.95L832.771 168.479L832.768 168.472L827.514 160.742L823.235 154.456L823.331 154.452L822.26 153.018L822.008 152.544L821.908 152.547L798.118 120.702L796.459 118.482L796.807 118.447L795.383 117.041L795.097 116.659L795.005 116.668L764.624 86.6695L765.014 86.6031L763.217 85.2815L762.914 84.9818L762.83 84.9961L728.085 59.4441L728.519 59.3397L726.489 58.2406L726.34 58.1604L726.029 57.9316L726.022 57.9335L721.76 54.7926L722.729 56.2066L687.452 37.1171L687.923 36.9684L685.369 35.9903L681.834 34.0779L682.362 34.8393L643.391 19.9203L643.897 19.7205L641.289 19.0756L640.994 19.0027L640.693 18.8876L638.083 17.8885L638.415 18.3653L613.779 12.2768L596.572 8.0241L597.099 7.76926L593.896 7.36295L593.609 7.29173L591.412 6.74872L591.644 7.0769L547.698 1.50023L548.228 1.18989L544.813 1.13417L544.531 1.09845L542.647 0.859558L542.82 1.10153L518.255 0.70045L497.44 0.360341L497.945 0L494.43 0.311292L492.534 0.280328L492.67 0.467044L446.474 4.55589L446.918 4.16409L444.028 4.71592L443.473 4.82167L441.794 4.97006L441.905 5.12081L419.195 9.45663L395.479 13.9845L395.823 13.5926L393.248 14.3483L392.641 14.5263L392.36 14.5798L391.159 14.8094L391.252 14.9338L345.08 28.4849L345.296 28.1344L343.244 28.9546L342.593 29.2147L341.286 29.5983L341.366 29.7054L327.466 35.2637L295.945 47.8679L296.029 47.6049L294.666 48.3037L293.985 48.6522L293.6 48.8063L292.829 49.115L292.9 49.2075L248.773 71.8248L248.761 71.6663L248.133 72.0665L247.432 72.5122L246.413 73.0343L246.479 73.1184L204.3 99.9601L204.249 99.887L203.486 100.478L202.61 101.036L202.671 101.112L186.095 113.977L163.497 131.515L163.436 131.441L162.707 132.128L161.955 132.712L161.433 133.118L161.586 133.182L126.377 166.334L126.309 166.252L125.586 167.079L124.954 167.674L123.915 168.653L124.202 168.662L93.3598 203.962L93.2807 203.867L92.7715 204.584L92.579 204.856L92.0608 205.449L90.7064 206.999L91.1172 206.916L64.85 243.926L64.7557 243.814L64.2412 244.731L64.0942 244.992L62.2522 247.586L62.7415 247.399L41.2007 285.726L41.0853 285.591L40.4931 286.985L38.8726 289.869L39.3852 289.592L25.2852 322.774L22.7121 328.83L22.5665 328.663L22.0806 330.316L20.803 333.323L21.2956 332.987L10.4328 369.94L9.62729 372.681L9.43644 372.465L9.16256 374.128L9.1126 374.431L8.23262 377.425L8.68047 377.056L5.07183 398.979L2.15209 416.716L1.89223 416.426L1.81062 418.789L1.74541 419.188L1.3385 421.659L1.72495 421.282L0.898281 445.26L0.378584 460.336L0 459.916L0.292929 462.81L0.201075 465.478L0.525643 465.106L4.35247 502.896L3.75281 502.236L4.56282 505.523L4.6573 505.908L4.90216 508.324L5.16629 507.972L13.9867 543.756L12.8952 542.554L14.915 547.523L15.4422 549.661L15.6514 549.334L23.3956 568.383L28.943 582.029L26.3531 579.211L30.7506 586.66L30.9935 587.073L31.746 588.924L31.9083 588.622L43.1056 607.592L52.484 623.481L52.4457 623.566L52.7769 623.976L53.6998 625.54L53.8211 625.268L63.4304 637.155L79.6402 657.208L79.6077 657.299L80.0289 657.689L81.074 658.981L81.1168 658.863L82.7087 660.584L86.2279 664.394L88.8452 667.231L92.4065 671.093L95.0755 673.982L97.38 676.479L97.2089 676.513L98.5646 677.766L98.8921 678.171L98.983 678.153L110.66 688.952L129.646 706.508L129.327 706.596L130.981 707.744L131.33 708.065L131.413 708.043L166.573 732.424L166.235 732.547L168.177 733.537L168.536 733.785L168.54 733.783L175.328 738.495L173.057 736.023L207.855 753.75L207.508 753.91L209.702 754.691L210.069 754.878L210.077 754.875L214.437 757.102L213.451 756.025L252.962 770.084L252.618 770.282L255.016 770.814L255.382 770.945L258.621 772.097L258.073 771.493L274.232 775.083L301.325 781.101L301 781.333L303.204 781.556L303.519 781.589L306.437 782.237L306.089 781.848L352.248 786.525L351.96 786.784L354.505 786.753L356.936 787L356.695 786.728L405.021 786.159L404.789 786.428L407.232 786.133L407.624 786.129L409.301 786.109L409.123 785.905L448.729 781.13L458.838 779.91L458.677 780.171L460.38 779.781L460.901 779.663L462.668 779.449L462.53 779.289L512.864 767.757L512.779 767.987L514.662 767.346L516.18 766.998L516.069 766.866L566.193 749.804L566.178 749.985L567.026 749.596L567.661 749.304L568.213 749.117L568.953 748.865L568.863 748.755L617.913 726.286L617.945 726.41L618.343 726.177L619.021 725.779L620.123 725.274L620.044 725.178L658.198 702.767L667.068 697.557L667.125 697.633L667.15 697.614L667.869 697.087L668.76 696.563L668.793 696.544L668.724 696.459L697.137 675.598L712.57 664.269L712.634 664.351L712.866 664.138L713.374 663.678L714.497 662.853L714.37 662.774L753.935 626.832L754.009 626.928L754.755 626.087L756.068 624.894L755.859 624.842L773.785 604.653L790.496 585.834L790.583 585.95L791.06 585.274L791.322 584.903L792.71 583.34L792.428 583.337L821.627 541.965L821.735 542.11L822.436 540.819L823.769 538.93L823.431 538.99L837.99 512.212L846.811 495.984L846.948 496.173L847.433 494.941L847.579 494.572L848.731 492.452L848.367 492.574L865.669 448.68L865.851 448.935L866.35 446.95L867.237 444.701L866.872 444.875L877.932 400.876L878.19 401.243L878.421 399.154L878.466 398.752L878.559 398.379L879.039 396.473L878.693 396.688L883.464 353.414L883.863 353.989ZM864.989 444.368L861.486 439.456L861.203 439.059L861.158 438.994L867.162 415.146L872.645 393.366L876.45 398.772L864.989 444.368ZM667.504 694.934L663.091 689.412L707.001 657.159L711.367 662.733L667.504 694.934ZM665.863 696.003L618.796 723.648L614.348 718.193L661.461 690.496L661.519 690.568L665.863 696.003ZM565.643 747.931L514.716 765.267L510.258 759.998L561.231 742.618L565.643 747.931ZM251.952 767.653L210.645 752.956L207.345 749.345L248.666 764.035L251.952 767.653ZM205.744 750.486L169.276 731.906L166.926 729.349L203.385 747.904L203.431 747.954L205.744 750.486ZM162.026 726.898L132.236 706.24L132.168 706.166L161.906 726.768L162.026 726.898ZM128.659 166.865L163.541 134.021L166.239 135.175L178.03 140.23L157.825 159.239L149.255 167.3L149.189 167.253L148.913 167.568L128.659 166.865ZM248.93 73.9374L292.748 51.4784L286.56 70.8924L286.099 71.0756L286.129 71.1556L255.265 86.934L250.086 89.5812L248.93 73.9374ZM340.535 32.1394L336.435 38.7883L326.457 54.9677L325.947 55.1165L325.964 55.198L288.903 69.9588L295.178 50.2772L340.535 32.1394ZM389.922 17.3576L367.424 42.9774L366.907 43.0751L366.911 43.1557L357.963 45.7687L329.252 54.1518L343.548 30.9675L389.922 17.3576ZM760.156 85.4504L667.664 101.167L667.388 100.889L667.294 100.969L652.879 90.171L640.117 80.6108L725.605 60.041L760.156 85.4504ZM879.455 299.589L878.591 298.335L876.912 295.901L869.516 255.507L872.043 259.2L879.455 299.589ZM881.697 347.453L878.535 342.903L878.49 342.838L878.435 341.14L877.074 299.57L880.269 304.205L881.697 347.453ZM32.9894 586.617L72.6151 513.102L73.125 513.949L89.1656 540.594L89.0437 540.677L89.3374 541.033L53.4595 621.298L32.9894 586.617ZM544.945 3.11839L590.334 8.87773L531.255 37.4868L530.828 37.3788L530.789 37.4603L501.386 33.599L494.582 32.7051L544.945 3.11839ZM399.117 777.435L349.002 778.054L344.715 773.231L394.862 772.581L394.906 772.631L395.734 773.576L399.117 777.435ZM54.7139 623.27L90.7232 542.711L111.448 567.804L111.331 567.903L111.676 568.214L95.3001 613.707L80.413 655.062L54.7139 623.27ZM840.195 486.85L816.085 531.168L811.989 525.616L811.94 525.547L836.082 481.184L836.219 481.372L840.195 486.85ZM785.08 575.381L780.836 569.741L810.805 527.294L815.007 532.991L785.08 575.381ZM660.232 688.957L613.101 716.664L608.641 711.19L610.87 709.878L655.819 683.428L657.436 685.456L660.232 688.957ZM245.897 760.979L204.54 746.278L201.225 742.652L242.582 757.323L242.626 757.372L245.897 760.979ZM665.759 102.257L665.096 102.814L597.21 159.84L576.833 144.21L637.974 81.4416L665.759 102.257ZM155.878 720.218L126.089 699.581L125.978 699.461L155.759 720.089L155.87 720.209L155.878 720.218ZM181.278 139.995L213.051 115.36L251.642 164.977L253.783 167.729L253.778 167.732L253.838 167.809L229.898 186.282L229.837 186.217L229.799 186.253L181.278 139.995ZM410.271 36.9599L449.561 33.5875L446.612 47.7161L434.401 106.222L434.074 106.213L434.09 106.328L404.981 108.619L410.271 36.9599ZM393.173 770.652L343.001 771.302L338.701 766.456L346.409 766.351L388.556 765.772L388.575 765.86L388.938 765.816L389.799 766.799L393.173 770.652ZM163.068 492.297L178.507 510.58L178.191 510.639L178.837 511.21L152.871 533.017L112.941 566.549L91.9058 541.079L163.068 492.297ZM256.649 168.228L282.285 152.058L323.005 214.595L343.771 246.485L343.674 246.534L343.743 246.62L326.633 257.287L256.649 168.228ZM288.596 72.1807L326.376 57.1333L340.522 123.539L340.34 123.591L340.378 123.684L320.528 131.481L312.081 134.8L288.596 72.1807ZM342.991 124.862L371.96 116.58L405.643 222.435L405.146 222.521L405.249 222.654L386.282 227.886L342.991 124.862ZM373.866 116.142L403.178 110.809L418.178 178.338L427.129 218.629L426.441 218.675L426.568 218.839L407.582 222.101L373.866 116.142ZM854.334 429.445L850.517 424.093L850.672 423.701L850.565 423.656L862.02 378.271L865.858 383.721L854.334 429.445ZM809.585 525.641L779.605 568.103L775.35 562.441L805.362 519.929L809.585 525.641ZM447.043 764.301L395.692 770.569L391.279 765.53L414.907 762.629L442.378 759.257L442.406 759.343L442.706 759.273L447.043 764.301ZM405.121 110.565L434.343 108.265L439.688 149.185L448.569 217.182L429.097 218.496L405.121 110.565ZM587.423 183.157L559.067 254.531L545.897 244.172L575.891 145.944L596.06 161.417L587.423 183.157ZM868.95 284.348L866.416 280.672L866.4 280.168L866.288 280.148L861.428 253.522L858.982 240.119L861.556 243.875L868.95 284.348ZM807.757 519.889L806.547 518.251L806.734 517.987L806.638 517.926L830.691 473.749L834.813 479.435L810.662 523.818L807.757 519.889ZM743.084 609.478L738.746 603.827L759.654 580.262L774.082 564L778.372 569.708L743.084 609.478ZM741.71 610.89L701.717 647.254L697.321 641.632L711.832 628.431L737.354 605.217L740.049 608.728L741.71 610.89ZM231.239 187.711L255.043 169.342L302.752 230.054L324.968 258.324L324.963 258.328L325.025 258.406L309.06 270.615L231.239 187.711ZM494.777 113.111L489.989 220.89L471.574 218.073L466.98 109.211L494.777 113.111ZM519.656 232.361L527.652 235.701L530.184 239.074L530.169 239.066L530.918 240.06L516.459 234.009L513.168 229.651L519.656 232.361ZM497.448 744.52L451.99 636.637L492.969 622.219L548.594 727.021L497.448 744.52ZM149.757 713.56L149.378 713.297L149.637 713.429L149.698 713.495L149.757 713.56ZM165.164 491.755L264.175 480.451L274.584 492.514L251.485 496.857L180.709 510.164L165.164 491.755ZM245.121 434.506L248.077 438.008L251.604 450.896L248.646 447.394L245.121 434.506ZM244.973 374.787L249.625 358.305L254.022 363.612L249.385 380.072L248.623 379.159L244.973 374.787ZM267.01 321.633L271.557 327.182L262.622 343.226L260.03 340.085L258.06 337.698L259.705 334.745L267.01 321.633ZM830.065 470.56L720.63 413.557L735.285 376.882L848.159 424.755L830.065 470.56ZM246.852 433.534L243.944 430.088L242.146 415.533L245.78 419.86L247.589 434.406L246.944 433.642L246.852 433.532V433.534ZM366.278 240.119L369.297 243.965L351.238 252.946L346.697 247.209L364.78 238.212L366.278 240.119ZM399.414 235.215L412.247 231.683L416.647 237.356L397.527 242.603L393.12 236.948L399.414 235.215ZM509.64 228.213L513.326 233.097L497.124 228.593L493.437 223.729L509.64 228.213ZM552.279 251.673L558.788 256.793L559.842 258.201L551.063 251.285L550.021 249.897L552.279 251.673ZM864.241 279.783L749.391 259.315L743.441 224.764L856.373 236.689L864.241 279.783ZM804.984 516.886L700.264 451.016L719.793 415.321L829.243 472.331L804.984 516.886ZM281.171 648.903L307.392 572.567L336.575 574.862L325.873 626.138L320.407 652.325L281.171 648.903ZM476.106 227.716L479.876 232.665L461.482 231.916L457.372 226.548L475.779 227.287L476.106 227.716ZM741.493 224.932L743.879 238.789L747.427 259.396L657.882 278.574L657.554 278.644L653.399 253.193L741.493 224.932ZM492.175 620.431L451.412 634.773L435.689 560.987L465.834 550.207L489.416 613.077L492.175 620.431ZM250.464 384.408L254.699 389.483L252.279 405.661L248.036 400.599L250.464 384.408ZM409.022 241.472L417.941 239.024L422.323 244.684L403.224 249.913L398.828 244.269L409.022 241.472ZM564.369 264.25L565.39 265.613L556.633 258.709L555.616 257.354L564.369 264.25ZM555.139 496.412L578.589 474.88L642.713 520.453L610.891 549.566L555.139 496.412ZM406.274 535.4L425.659 532.621L412.397 551.836L401.614 567.463L372.337 571.574L406.274 535.4ZM428.321 532.195L447.899 527.297L433.857 559.524L404.436 566.805L428.321 532.195ZM491.053 509.698L496.086 533.805L483.993 539.543L467.645 547.299L471.93 518.808L491.053 509.698ZM469.836 519.62L465.532 548.244L451.343 553.318L436.352 558.679L450.31 526.644L469.836 519.62ZM323.865 524.766L340.368 530.077L306.972 548.277L276.963 564.63L251.954 556.406L323.865 524.766ZM279.896 565.253L342.991 530.869L360.526 534.228L306.507 570.5L282.796 565.825L279.896 565.253ZM309.586 570.783L363.302 534.712L381.654 536.067L360.93 553.364L337.436 572.973L320.489 571.64L309.586 570.783ZM652.233 397.56L635.799 393.779L646.614 366.937L733.367 376.425L718.801 412.877L652.233 397.56ZM609.367 550.808L574.387 576.779L527.844 516.938L553.636 497.674L565.287 508.783L609.367 550.808ZM512.777 496.619L529.783 483.901L551.934 496.51L526.665 515.383L512.777 496.619ZM546.655 468.485L576.425 474.22L553.578 495.2L531.355 482.55L546.655 468.485ZM618.576 421.401L610.64 423.261L575.599 431.476L584.639 415.047L632.318 396.365L623.404 412.603L618.576 421.401ZM592.493 395.734L644.075 368.022L639.289 379.901L633.721 393.719L611.231 402.531L585.706 412.533L592.493 395.734ZM597.739 376.166L651.998 339.218L645.151 365.229L593.24 393.119L597.739 376.166ZM574.271 433.791L616.94 423.788L599.941 447.825L563.053 449.668L574.271 433.791ZM561.557 451.697L598.199 449.866L578.149 472.565L548.218 466.799L561.557 451.697ZM682.239 368.871L647.216 365.04L654.356 337.917L743.535 337.711L734.016 374.533L682.239 368.871ZM652.691 336.385L598.132 373.538L600.299 356.611L655.925 310.429L654.853 319.041L652.691 336.385ZM656.215 307.652L635.592 324.774L600.333 354.048L600.15 337.398L655.817 282.119L655.974 292.117L656.215 307.652ZM644.113 519.055L579.961 473.462L600.689 449.994L672.223 487.285L670.828 488.861L644.113 519.055ZM673.475 485.737L601.905 448.428L619.587 423.423L697.436 451.833L691.824 459.773L673.475 485.737ZM698.516 450.149L620.622 421.724L634.968 395.589L717.923 414.678L708.371 432.135L698.516 450.149ZM748.413 297.166L690.862 303.448L658.154 307.018L657.743 280.598L747.599 261.355L748.308 292.523L748.413 297.166ZM655.713 279.473L599.837 334.96L597.293 318.807L651.679 254.759L655.713 279.473ZM595.309 318.74L598.197 337.077L598.369 352.764L598.406 356.048L596.699 369.385L595.932 375.375L594.027 382.553L590.794 394.733L583.46 412.893L583.072 413.85L572.86 432.41L567.531 439.95L560.335 450.135L556.537 454.435L545.657 466.753L532.563 478.791L529.089 481.984L510.87 495.61L494.574 505.443L491.289 507.425L489.384 508.332L470.663 517.249L458.381 521.668L449.306 524.933L434.419 528.658L427.54 530.379L405.709 533.51L384.143 534.294L363.171 532.746L343.07 528.897L334.545 526.154L324.168 522.813L306.727 514.624L290.956 504.449L280.179 495.117L273.654 484.797L272.04 481.147L266.484 468.576L262.566 454.311L261.763 451.386L259.521 433.466L259.718 420.559L259.802 415.075L262.568 396.459L267.789 377.887L270.719 370.842L275.397 359.602L285.263 341.87L297.265 324.928L311.242 309.014L326.98 294.35L339.551 284.756L344.298 281.134L354.682 274.679L362.939 269.546L382.652 259.776L403.154 251.955L424.2 246.195L434.347 244.47L445.442 242.583L466.633 241.202L487.425 242.08L491.837 242.764L507.553 245.197L516.633 247.738L526.689 250.551L538.082 255.327L544.587 258.054L560.937 267.62L575.521 279.115L582.576 286.569L589.814 301.293L595.309 318.74ZM314.671 280.599L316.189 282.491L319.247 286.301L304.829 299.735L300.237 294.053L314.671 280.599ZM396.834 244.885L399.426 248.212L401.274 250.585L382.581 257.715L378.125 252.043L396.426 245.04L396.834 244.885ZM361.017 268.443L343.967 279.042L339.423 273.351L356.5 262.737L359.637 266.699L361.017 268.443ZM342.362 280.158L326.519 292.247L321.96 286.564L337.811 274.456L342.362 280.158ZM332.031 267.202L336.593 272.931L320.739 285.043L316.158 279.339L332.031 267.202ZM310.64 306.91L306.059 301.256L308.693 298.802L320.47 287.826L325.026 293.504L310.64 306.91ZM362.735 267.471L358.235 261.788L359.494 261.161L376.265 252.83L380.751 258.541L362.735 267.471ZM356.998 260.224L352.475 254.508L370.529 245.531L375.033 251.264L356.998 260.224ZM304.698 302.675L309.263 308.31L296.53 322.812L291.954 317.194L301.13 306.74L304.698 302.675ZM295.276 324.363L284.381 339.743L279.82 334.176L290.732 318.781L292.446 320.886L295.276 324.363ZM273.392 359.345L266.587 375.697L264.452 373.125L262.119 370.313L268.931 353.946L273.392 359.345ZM260.585 396.541L258.182 412.706L256.119 410.243L253.95 407.657L255.925 394.466L256.371 391.487L260.585 396.541ZM257.847 415.342L257.61 430.891L253.618 426.151L253.857 410.581L257.847 415.342ZM259.428 448.434L255.819 444.161L255.758 443.669L254.012 429.647L257.613 433.923L259.428 448.434ZM263.453 464.901L260.531 461.447L257 448.581L259.92 452.039L263.453 464.901ZM264.73 469.429L269.177 479.493L267.702 477.752L265.151 471.973L263.266 467.701L264.73 469.429ZM505.192 238.715L520.851 243.075L523.582 246.697L524.497 247.912L508.337 243.39L504.684 238.574L505.192 238.715ZM527.631 248.829L524.381 244.517L538.833 250.572L542.078 254.886L527.631 248.829ZM545.682 256.435L543.144 253.059L555.268 260.141L557.808 263.529L545.682 256.435ZM570.93 273.013L562.191 266.125L561.185 264.783L569.927 271.676L570.93 273.013ZM549.699 252.715L552.252 256.12L540.112 249.029L537.554 245.631L549.699 252.715ZM485.489 240.046L467.114 239.269L463.026 233.933L481.411 234.68L485.489 240.046ZM488.058 240.204L484.147 235.059L495.074 236.75L501.621 237.762L505.523 242.907L488.058 240.204ZM460.531 233.88L461.316 234.907L464.736 239.369L445.785 240.606L441.573 235.126L450.187 234.559L460.531 233.88ZM439.272 235.331L440.266 236.626L443.568 240.922L424.4 244.182L420.079 238.599L428.509 237.164L439.272 235.331ZM278.749 335.946L283.262 341.455L274.359 357.455L269.828 351.97L276.733 339.566L278.749 335.946ZM261.428 372.536L265.79 377.792L261.177 394.205L256.805 388.964L257.751 385.604L261.428 372.536ZM248.085 422.602L251.707 426.907L253.514 441.429L249.893 437.136L248.085 422.602ZM518.919 240.511L502.736 236.006L499.066 231.157L515.26 235.66L518.919 240.511ZM496.008 230.348L497.908 232.858L499.638 235.144L499.633 235.143L499.924 235.525L482.445 232.82L478.515 227.662L490.677 229.53L496.008 230.348ZM454.877 226.498L458.948 231.813L459.104 232.019L440.141 233.263L435.899 227.761L454.877 226.498ZM350.74 255.459L353.229 258.603L355.281 261.197L338.199 271.816L333.642 266.094L335.197 265.128L350.74 255.459ZM298.876 295.472L300.897 297.972L303.453 301.138L290.706 315.661L286.113 310.021L298.876 295.472ZM251.941 408.296L251.704 423.874L247.693 419.103L247.855 408.902L247.939 403.521L251.941 408.296ZM254.004 445.035L257.538 457.911L256.432 456.604L256.029 456.126L256.032 456.132L254.593 454.432L251.069 441.557L254.004 445.035ZM226.162 544.408L306.199 516.53L321.455 523.695L273.455 544.815L249.251 555.464L243.068 552.504L226.162 544.408ZM249.653 557.702L275.697 566.268L264.93 588.593L239.946 640.391L205.058 628.531L249.653 557.702ZM340.559 572.908L384.498 536.234L403.464 535.544L382.951 557.408L369.297 571.963L356.655 572.378L340.559 572.908ZM497.871 532.813L492.85 508.762L511.16 497.714L522.806 513.447L525.042 516.468L517.496 521.008L497.871 532.813ZM743.929 335.76L654.708 335.966L658.069 308.99L748.295 299.142L744.595 330.171L743.929 335.76ZM651.206 252.303L613.074 297.209L596.66 316.54L591.799 301.103L643.593 228.764L651.206 252.303ZM544.109 245.27L544.598 245.921L546.684 248.7L534.522 241.605L531.949 238.178L544.109 245.27ZM535.228 245.784L536.506 247.482L522.05 241.424L518.788 237.099L533.242 243.147L535.228 245.784ZM437.924 233.582L418.725 236.851L414.385 231.257L433.599 227.97L437.924 233.582ZM395.492 243.162L395.58 243.275L376.865 250.436L372.389 244.743L391.128 237.565L395.17 242.749L395.492 243.162ZM272.886 328.804L277.419 334.325L268.496 350.355L265.226 346.384L263.955 344.84L269.371 335.113L272.886 328.804ZM263.057 346.818L267.528 352.245L260.713 368.619L257.701 364.993L256.224 363.214L259.65 354.992L263.057 346.818ZM255.533 365.434L259.916 370.713L255.292 387.149L250.901 381.886L250.952 381.702L255.533 365.434ZM245.78 416.827L241.755 412.036L242.003 396.441L246.026 401.238L245.78 416.827ZM257.319 460.671L258.813 462.436L263.265 472.527L261.765 470.76L259.954 466.65L257.319 460.671ZM277.61 566.792L305.429 572.277L279.206 648.625L279.202 648.636L241.871 640.892L277.61 566.792ZM364.94 651.185L370.646 573.781L401.268 569.482L406.236 645.679L385.449 648.451L364.94 651.185ZM408.166 645.306L403.198 569.121L433.815 561.545L449.537 635.334L408.166 645.306ZM467.637 549.463L496.792 535.629L503.221 547.117L533.476 601.178L493.978 619.689L467.637 549.463ZM575.589 578.317L610.761 552.201L617.293 559.155L694.53 641.385L650.57 673.725L575.589 578.317ZM737.402 602.403L645.635 520.278L673.914 488.317L735.239 534.427L772.712 562.604L737.402 602.403ZM675.123 486.785L699.231 452.671L803.954 518.543L773.927 561.077L675.123 486.785ZM472.872 220.245L490.376 222.924L494.314 228.114L476.813 225.426L472.872 220.245ZM326.241 259.933L330.815 265.675L314.937 277.818L310.338 272.092L315.737 267.965L326.241 259.933ZM308.849 273.354L310.057 274.857L313.446 279.075L299.008 292.532L294.404 286.837L308.849 273.354ZM297.631 293.933L284.864 308.488L280.25 302.828L293.044 288.256L297.631 293.933ZM284.89 311.607L289.454 317.211L278.536 332.614L273.957 327.035L279.423 319.32L284.89 311.607ZM276.148 494.206L288.341 504.764L200.793 528L182.472 511.819L276.148 494.206ZM202.896 529.461L290.208 506.288L304.043 515.215L269.877 527.115L223.739 543.186L211.134 534.886L202.896 529.461ZM223.885 545.482L247.824 556.944L216.452 606.776L203.219 627.794L171.231 612.054L223.885 545.482ZM170.432 613.835L202.173 629.454L202.092 629.583L202.518 629.728L190.922 732.212L151.333 712.103L170.432 613.835ZM192.788 733.056L204.407 630.37L239.092 642.162L239.028 642.294L239.449 642.382L236.867 724.172L236.102 748.391L192.788 733.056ZM322.39 652.366L338.554 574.927L368.681 573.935L362.972 651.357L349.243 651.698L322.39 652.366ZM535.201 600.265L498.511 534.705L526.226 518.032L572.757 577.858L556.398 587.617L535.201 600.265ZM696.047 640.153L612.264 550.954L644.269 521.673L736.026 603.788L696.047 640.153ZM848.749 422.885L811.341 407.02L735.903 375.025L745.476 337.992L860.428 376.61L848.749 422.885ZM860.76 374.663L803.934 355.572L745.856 336.061L750.245 299.258L865.881 328.697L860.76 374.663ZM865.927 326.696L833.836 318.527L750.366 297.275L749.548 261.324L864.503 281.812L865.927 326.696ZM855.779 234.664L779.237 226.583L743.097 222.767L743.033 222.387L742.881 222.436L732.096 190.155L841.714 194.057L855.779 234.664ZM453.296 224.431L453.451 224.636L434.466 225.901L430.212 220.377L449.213 219.094L450.015 220.142L453.296 224.431ZM385.392 230.223L386.279 231.357L389.873 235.956L371.127 243.137L366.639 237.424L378.992 232.68L385.392 230.223ZM257.162 339.674L261.653 345.115L254.819 361.519L250.318 356.085L257.162 339.674ZM251.375 453.643L252.875 455.419L257.322 465.514L257.042 465.183L255.817 463.735L255.597 463.237L251.375 453.643ZM241.386 642.784L252.222 645.031L278.563 650.497L278.518 650.629L278.915 650.663L279.528 662.599L284.5 759.212L238.033 748.977L241.386 642.784ZM390.086 763.709L365.066 653.136L406.363 647.63L406.371 647.745L406.616 647.687L441.772 757.366L390.086 763.709ZM730.137 190.446L741.025 223.032L652.93 251.293L645.126 227.169L730.137 190.446ZM642.791 226.537L590.878 299.038L583.761 284.56L631.735 204.55L635.53 212.097L642.791 226.537ZM470.137 219.872L472.313 222.733L474.037 225L474.244 225.273L455.829 224.534L451.706 219.142L465.287 219.68L470.137 219.872ZM417.373 222.398L427.913 220.587L432.126 226.057L432.25 226.22L413.03 229.509L408.677 223.893L417.373 222.398ZM406.541 224.321L410.851 229.882L410.955 230.016L391.821 235.283L387.384 229.606L396.427 227.111L406.541 224.321ZM344.962 248.161L349.521 253.919L332.42 264.56L327.852 258.825L337.179 253.011L344.962 248.161ZM279.026 304.413L283.611 310.04L272.674 325.47L268.913 320.876L268.081 319.862L277.384 306.732L279.026 304.413ZM244.537 377.307L248.794 382.406L246.363 398.606L242.097 393.521L243.109 386.797L244.537 377.307ZM254.46 465.257L262.921 478.63L163.748 489.954L151.184 469.602L254.46 465.257ZM200.675 530.335L222.18 544.495L194.549 579.43L169.513 611.082L140.851 591.742L200.675 530.335ZM149.156 713.079L149.146 713.137L119.921 692.893L119.805 692.767L127.294 697.949L149.156 713.079ZM157.002 718.56L154.605 715.952L158.598 717.98L190.688 734.28L190.677 734.378L191.177 734.554L193.529 737.126L157.002 718.56ZM207.731 740.417L236.037 750.438L236.035 750.534L236.521 750.641L239.813 754.272L198.424 739.588L195.086 735.939L207.731 740.417ZM286.47 759.553L280.875 650.834L320.005 654.249L319.979 654.378L320.337 654.37L329.992 724.79L335.423 764.418L286.47 759.553ZM337.406 764.524L322.298 654.32L362.829 653.313L362.819 653.435L363.126 653.395L388.114 763.825L337.406 764.524ZM408.517 647.228L449.944 637.243L449.967 637.349L450.147 637.285L457.921 655.736L495.555 745.048L443.714 757.037L408.517 647.228ZM601.75 702.585L536.21 601.934L573.966 579.407L622.52 641.189L648.932 674.796L601.75 702.585ZM656.23 680.818L651.783 675.254L695.809 642.867L700.208 648.491L656.23 680.818ZM831.725 471.851L831.906 471.518L831.804 471.466L849.662 426.255L853.663 431.863L835.711 477.348L831.725 471.851ZM867.951 327.703L868.005 327.225L867.894 327.197L866.531 284.276L869.761 288.965L871.16 332.316L867.951 327.703ZM544.198 243.062L529.375 234.417L551.588 131.976L574.209 144.779L544.198 243.062ZM509.396 226.122L491.922 221.285L496.711 113.519L523.169 120.482L509.396 226.122ZM365.051 182.395L384.387 228.409L384.047 228.503L384.136 228.616L365.512 235.765L312.89 136.578L341.134 125.483L365.051 182.395ZM299.03 262.778L307.573 271.879L293.061 285.421L208.086 209.276L229.749 188.972L299.03 262.778ZM291.706 286.825L278.837 301.48L187.503 232.641L206.727 210.676L291.706 286.825ZM248.021 356.814L243.46 372.973L243.254 372.728L243.105 373.721L236.67 371.552L135.721 337.536L143.049 312.125L248.021 356.814ZM240.082 394.566L239.841 409.758L239.403 409.236L239.646 411.195L130.529 391.923L131.151 366.841L240.082 394.566ZM239.896 413.221L241.646 427.375L240.906 426.488L241.697 429.382L191.524 424.256L133.419 418.32L130.65 393.926L239.896 413.221ZM247.12 448.817L253.514 463.344L150.111 467.693L140.708 445.673L247.12 448.817ZM139.917 593.465L168.3 612.617L168.204 612.738L168.617 612.942L149.563 710.988L114.212 686.526L139.917 593.465ZM274.559 759.021L284.606 761.233L284.61 761.328L285.068 761.374L288.849 765.586L243.652 755.6L239.812 751.366L274.559 759.021ZM527.727 736.222L549.52 728.766L549.562 728.845L549.72 728.773L550.553 729.773L554.127 734.071L503.071 751.51L498.572 746.197L527.727 736.222ZM550.421 726.303L494.779 621.469L534.485 602.859L549.652 626.151L600.007 703.484L550.421 726.303ZM866.228 380.859L863.845 377.477L862.65 375.777L862.76 375.336L862.651 375.299L867.624 330.648L871.231 335.831L866.228 380.859ZM858.124 235.417L858.029 234.903L857.92 234.891L845.729 199.688L846.814 201.28L859.18 236.958L858.124 235.417ZM840.764 192.07L731.436 188.179L731.313 187.814L731.173 187.874L715.738 158.008L820.857 154.535L840.764 192.07ZM729.378 188.649L696.917 202.672L644.383 225.364L633.103 202.93L713.757 158.422L729.378 188.649ZM630.645 202.577L582.59 282.721L573.315 269.42L616.305 182.472L617.033 183.494L630.645 202.577ZM614.973 180.765L571.931 267.82L560.627 255.886L597.587 162.851L599.494 164.815L614.973 180.765ZM527.566 233.552L511.281 226.748L525.05 121.132L549.79 131.072L527.566 233.552ZM465.022 109.032L467.16 159.72L469.615 217.9L450.529 217.143L436.303 108.227L442.451 108.399L465.022 109.032ZM311.103 137.372L363.678 236.469L363.473 236.548L363.549 236.644L345.528 245.611L283.988 151.1L311.103 137.372ZM186.292 234.173L223.308 262.071L277.629 303.012L266.801 318.299L266.702 318.177L266.506 318.531L169.764 257.482L186.292 234.173ZM265.556 320.238L256.728 336.085L256.608 335.938L256.394 336.448L155.086 283.482L168.721 259.13L265.556 320.238ZM135.309 339.455L242.81 375.681L240.427 391.528L240.136 391.181L240.113 392.561L131.308 364.866L135.309 339.455ZM133.838 420.325L242.25 431.399L245.662 443.873L244.151 442.078L246.249 446.841L218.312 446.015L139.97 443.699L133.838 420.325ZM114.299 567.956L180.315 512.516L198.527 528.602L198.182 528.694L199.016 529.242L188.292 540.251L139.294 590.544L114.299 567.956ZM292.076 766.26L287.946 761.66L308.264 763.679L335.696 766.405L335.709 766.497L336.124 766.492L340.183 771.065L292.076 766.26ZM449.33 763.966L444.854 758.777L451.991 757.126L496.324 746.872L496.36 746.955L496.591 746.876L497.197 747.591L500.979 752.057L449.33 763.966ZM607.395 709.659L602.914 704.163L613.954 697.66L650.148 676.344L650.205 676.415L650.212 676.411L654.588 681.889L607.395 709.659ZM529.897 39.3111L495.261 111.12L494.87 111.017L494.863 111.153L467.263 107.28L492.302 34.3732L529.897 39.3111ZM205.2 209.462L185.942 231.464L185.864 231.406L185.776 231.531L123.823 199.24L149.496 169.864L205.2 209.462ZM255.641 338.257L248.913 354.389L248.758 354.201L248.554 354.921L147.046 311.707L143.693 310.28L154.232 285.238L255.641 338.257ZM160.788 722.672L197.269 741.216L199.642 743.811L163.149 725.238L160.788 722.672ZM556.054 733.338L551.554 727.929L570.513 719.205L601.083 705.138L601.133 705.213L601.215 705.164L605.226 710.086L605.616 710.565L556.054 733.338ZM657.448 682.343L701.411 650.028L701.474 650.109L705.797 655.622L661.872 687.887L657.448 682.343ZM744.349 611.127L744.294 611.053L764.161 588.663L779.567 571.299L779.655 571.415L780.88 573.043L783.846 576.986L748.611 616.682L744.349 611.127ZM875.579 338.662L873.205 335.254L871.808 291.932L875.026 296.601L876.443 339.901L875.579 338.662ZM874.213 291.986L873.793 291.376L871.648 288.265L867.13 263.54L864.26 247.826L866.81 251.554L874.213 291.986ZM863.356 243.052L857.998 227.595L851.006 207.423L852.068 208.978L864.426 244.616L863.356 243.052ZM712.723 156.765L710.511 157.985L632.1 201.256L617.523 180.823L692.677 129.321L710.815 154.152L712.723 156.765ZM691.389 127.838L629.274 170.406L616.278 179.311L598.667 161.162L667.268 103.538L691.389 127.838ZM636.282 80.3841L575.195 143.096L552.388 130.187L605.287 63.3001L636.282 80.3841ZM567.807 48.7385L523.855 118.548L523.443 118.382L523.424 118.532L497.183 111.626L531.893 39.6598L567.807 48.7385ZM490.283 34.2512L465.296 107.004L464.934 106.953L464.939 107.077L436.382 106.278L451.573 33.4939L490.283 34.2512ZM122.575 200.789L184.636 233.138L168.329 256.132L168.112 256.439L168.025 256.384L167.928 256.557L106.359 234.095L100.458 231.942L122.575 200.789ZM65.2883 303.346L141.159 311.641L137.141 325.574L133.871 336.914L133.742 336.87L133.692 337.189L55.3441 337.374L65.2883 303.346ZM128.687 393.918L131.434 418.117L131.24 418.097L131.362 418.564L51.6068 444.146L48.1158 411.167L128.687 393.918ZM51.933 446.092L131.858 420.454L135.579 434.644L137.938 443.639L137.717 443.632L137.934 444.142L59.95 477.822L51.933 446.092ZM60.5551 479.686L138.7 445.936L148.027 467.781L147.776 467.792L148.112 468.337L122.17 482.651L73.0503 509.753L60.5551 479.686ZM73.9262 511.499L149.136 469.999L161.607 490.198L161.324 490.23L161.804 490.798L90.7765 539.489L73.9262 511.499ZM113.239 569.627L120.731 576.396L137.933 591.943L137.825 592.053L138.211 592.314L112.575 685.132L81.8795 656.746L113.239 569.627ZM298.117 772.982L294.012 768.415L305.689 769.581L342.092 773.216L342.136 773.265L345.731 777.311L346.179 777.816L298.117 772.982ZM397.248 772.345L448.577 766.079L452.929 771.136L401.64 777.353L397.248 772.345ZM508.903 758.399L504.425 753.109L555.463 735.678L559.896 741.013L508.903 758.399ZM707.305 654.386L702.922 648.792L742.901 612.444L747.238 618.094L707.305 654.386ZM841.091 484.764L837.431 479.721L837.068 479.221L855.012 433.752L859.002 439.331L841.091 484.764ZM867.922 383.266L872.923 338.26L876.517 343.417L871.533 388.398L867.922 383.266ZM603.452 62.4769L592.937 75.7711L550.604 129.298L525.694 119.287L569.744 49.3234L603.452 62.4769ZM408.293 37.2524L404.186 92.9187L403.016 108.774L402.732 108.796L402.755 108.902L373.503 114.226L368.965 44.6715L408.293 37.2524ZM367.042 45.1507L371.571 114.577L371.337 114.62L371.368 114.719L342.4 123.002L328.231 56.4827L367.042 45.1507ZM286.819 72.9943L290.094 81.7267L310.267 135.512L310.143 135.56L310.189 135.649L289.347 146.2L282.971 149.427L250.569 91.5256L286.819 72.9943ZM248.876 92.4936L281.229 150.309L281.167 150.341L281.22 150.422L255.439 166.683L214.65 114.241L248.876 92.4936ZM179.78 141.262L228.374 187.588L206.629 207.97L206.56 207.908L206.491 207.987L150.877 168.452L179.78 141.262ZM99.3673 233.62L166.961 258.281L159.376 271.831L153.358 282.579L153.257 282.526L153.165 282.748L81.0965 266.164L99.3673 233.62ZM80.1874 267.957L152.396 284.572L148.749 293.24L141.898 309.516L141.786 309.468L141.707 309.738L131.217 308.591L65.9913 301.461L80.1874 267.957ZM133.385 339.142L131.232 352.811L129.41 364.384L129.262 364.347L129.253 364.716L49.3356 373.435L54.8719 339.326L133.385 339.142ZM49.1163 375.421L129.204 366.684L128.587 391.581L128.419 391.55L128.466 391.969L48.0665 409.182L49.1163 375.421ZM249.736 762.312L245.918 758.1L291.088 768.078L291.131 768.126L293.272 770.507L294.887 772.304L249.736 762.312ZM455.215 770.803L450.768 765.635L502.397 753.732L502.443 753.786L506.238 758.267L506.811 758.943L455.215 770.803ZM561.823 740.28L557.346 734.892L591.387 719.249L606.889 712.127L611.322 717.567L561.823 740.28ZM859.671 436.914L856.817 432.921L855.82 431.528L867.337 385.825L871.164 391.262L859.671 436.914ZM794.197 118.711L819.533 152.625L714.746 156.088L714.57 155.746L714.445 155.814L694.696 128.78L794.197 118.711ZM869.654 252.258L868.611 250.733L860.152 226.341L856.275 215.156L857.301 216.665L869.654 252.258ZM792.487 116.923L693.363 126.954L693.135 126.642L693.024 126.717L669.345 102.86L762.256 87.0719L792.487 116.923ZM705.398 62.8962L638.09 79.0924L637.772 78.8542L637.693 78.9352L607.5 62.293L684.86 37.9333L723.115 58.6329L705.398 62.8962ZM681.997 36.7892L638.006 50.6419L605.14 60.9912L604.782 60.7944L604.718 60.8764L596.267 57.5789L572.017 48.1165L640.705 20.9815L681.997 36.7892ZM604.767 33.0806L569.345 47.0743L568.952 46.921L568.901 47.0025L534.196 38.2297L593.824 9.35545L637.501 20.1489L604.767 33.0806ZM541.248 3.02665L515.484 18.1634L491.434 32.2918L490.977 32.2318L490.949 32.3138L453.745 31.5857L494.773 2.26739L541.248 3.02665ZM481.855 9.09989L450.478 31.5218L449.994 31.5123L449.977 31.5931L412.217 34.834L444.012 6.73251L490.988 2.57436L481.855 9.09989ZM434.957 12.133L408.956 35.1136L408.449 35.1574L408.442 35.2389L403.412 36.1878L370.536 42.3899L393.383 16.3709L440.295 7.41463L434.957 12.133ZM248.196 90.4399L248.204 90.5436L247.878 90.71L247.922 90.7889L218.764 109.317L213.475 112.678L205.444 101.545L247.058 75.0616L248.196 90.4399ZM203.848 102.667L207.87 108.242L211.825 113.725L211.794 113.746L211.853 113.821L179.85 138.635L179.789 138.575L179.581 138.772L165.245 132.627L203.848 102.667ZM126.716 168.75L147.256 169.462L122.043 198.312L121.97 198.275L121.701 198.654L95.9807 203.927L126.716 168.75ZM93.9155 206.342L105.222 204.024L120.046 200.984L98.5586 231.249L98.4792 231.22L98.2455 231.635L67.5846 243.443L93.9155 206.342ZM65.5962 246.298L96.7483 234.303L88.4997 248.995L79.1163 265.709L79.0309 265.69L78.8457 266.126L43.8659 284.964L65.5962 246.298ZM42.1322 288.113L77.6293 268.997L74.0161 277.524L63.9674 301.239L63.8758 301.229L63.7444 301.678L25.1983 327.964L42.1322 288.113ZM23.8374 331.253L62.8828 304.627L60.4493 312.953L53.311 337.379H53.2127L53.1389 337.834L11.8986 371.87L23.8374 331.253ZM10.9673 375.168L52.6649 340.754L50.5987 353.483L47.3248 373.654L47.2202 373.665L47.2059 374.12L45.4496 375.837L4.22735 416.111L10.9673 375.168ZM3.74334 419.31L47.1185 376.932L46.2321 405.467L46.1037 409.603L45.9921 409.626L46.0397 410.076L28.6794 429.937L2.33773 460.071L3.74334 419.31ZM2.28156 463.097L46.3195 412.719L49.7111 444.755L49.5942 444.792L49.7049 445.23L6.33754 503.153L2.28156 463.097ZM6.67689 505.954L50.3194 447.662L58.1372 478.605L58.0168 478.658L58.1905 479.076L27.3456 527.391L16.2466 544.778L6.67689 505.954ZM16.9371 547.32L59.1026 481.271L68.0332 502.761L71.3329 510.701L71.2106 510.77L71.4462 511.161L31.9937 584.355L16.9371 547.32ZM255.799 768.99L252.006 764.811L272.663 769.384L297.129 774.799L299.109 777.001L300.916 779.011L255.799 768.99ZM304.15 779.692L300.055 775.137L348.092 779.968L351.338 783.628L352.161 784.556L304.15 779.692ZM354.981 784.797L350.715 779.986L372.276 779.718L400.81 779.366L405.047 784.207L354.981 784.797ZM407.568 784.128L403.196 779.131L454.462 772.916L454.505 772.966L455.616 774.254L458.801 777.95L407.568 784.128ZM461.09 777.618L456.655 772.473L483.275 766.355L508.229 760.62L511.625 764.634L512.621 765.812L461.09 777.618ZM563.115 741.834L582.829 732.788L612.594 719.131L612.646 719.194L617.016 724.551L567.571 747.201L563.115 741.834ZM708.512 655.926L748.428 619.647L749.15 620.588L752.744 625.277L712.875 661.497L708.512 655.926ZM754.119 623.866L749.876 618.332L749.82 618.258L785.042 578.576L786.076 579.953L789.3 584.243L754.119 623.866ZM790.533 582.638L786.362 577.089L786.311 577.019L816.227 534.645L820.407 540.312L790.533 582.638ZM821.485 538.487L819.87 536.298L817.363 532.901L841.463 488.6L845.544 494.233L821.485 538.487ZM842.495 486.701L842.449 486.635L860.351 441.221L864.319 446.787L846.44 492.147L842.495 486.701ZM876.819 395.907L875.641 394.234L873.227 390.807L878.209 345.85L881.771 350.977L876.819 395.907Z" fill="url(#paint0_radial_6_30)"/>
</g>
</g>
</g>
<defs>
<radialGradient id="paint0_radial_6_30" cx="0" cy="0" r="1" gradientUnits="userSpaceOnUse" gradientTransform="translate(442 393.5) rotate(126.427) scale(542.211 2322.37)">
<stop stop-color="#BDF347"/>
<stop offset="1" stop-color="#EDEAFA" stop-opacity="0"/>
</radialGradient>
<clipPath id="clip0_6_30">
<rect width="884" height="787" fill="white"/>
</clipPath>
</defs>
</svg>
